<svg xmlns="http://www.w3.org/2000/svg" viewBox="0 0 296.8 108.78"><defs><style>.cls-1{font-size:66.63px;font-family:Gilroy-ExtraBold, Gilroy;font-weight:700;}.cls-1,.cls-5{fill:#0f4c81;}.cls-2{letter-spacing:0em;}.cls-3{letter-spacing:0em;}.cls-4{letter-spacing:-0.02em;}</style></defs><title>Asset 6</title><g id="Layer_2" data-name="Layer 2"><g id="Layer_1-2" data-name="Layer 1"><text class="cls-1" transform="translate(81.8 67.71)"><tspan class="cls-2">E</tspan><tspan class="cls-3" x="34.98" y="0">G</tspan><tspan class="cls-4" x="87.16" y="0">O</tspan><tspan x="138" y="0">S</tspan></text><path d="M95.26,100.87a.78.78,0,0,1-.83-.59L86.75,76.94a.86.86,0,0,1,.1-.73.74.74,0,0,1,.69-.38A.85.85,0,0,1,88,76a.76.76,0,0,1,.29.45l7.24,22H95.1l6.84-22a.76.76,0,0,1,.39-.49,1.3,1.3,0,0,1,.6-.15,1.34,1.34,0,0,1,.62.15.7.7,0,0,1,.37.49l6.84,22h-.47l7.24-22a.88.88,0,0,1,.3-.45.8.8,0,0,1,.49-.15c.4,0,.65.13.75.38a1,1,0,0,1,0,.73l-7.68,23.34a.81.81,0,0,1-.87.59h-.08a.81.81,0,0,1-.87-.59l-6.92-22.2h.47l-6.92,22.2a.67.67,0,0,1-.38.5A1.87,1.87,0,0,1,95.26,100.87Z"/><path d="M121.65,92.37V94q0,2.87,1.18,4t4.08,1.18h3.24a7.65,7.65,0,0,0,3.86-.73A3.11,3.11,0,0,0,135.38,96a1,1,0,0,1,.25-.62.85.85,0,0,1,.62-.21.81.81,0,0,1,.61.23A.78.78,0,0,1,137,96a4.67,4.67,0,0,1-1.88,3.69,8.74,8.74,0,0,1-5,1.18h-3.24q-3.62,0-5.27-1.65T120,94V89.56q0-3.66,1.65-5.31t5.27-1.61h3.24q3.62,0,5.27,1.65t1.65,5.27v2a.73.73,0,0,1-.83.83Zm5.26-8.07q-2.91,0-4.08,1.14t-1.18,4.12V90.7h13.77V89.56q0-2.91-1.18-4.08t-4.08-1.18Z"/><path d="M144.64,100.87a.73.73,0,0,1-.83-.83V74.4a.83.83,0,0,1,1.66,0V85.6A5.26,5.26,0,0,1,148,83.36a11,11,0,0,1,4.48-.76H154q3.62,0,5.27,1.65t1.65,5.27v4.43q0,3.62-1.65,5.27T154,100.87h-1.5a11,11,0,0,1-4.48-.76,5.26,5.26,0,0,1-2.52-2.25V100A.73.73,0,0,1,144.64,100.87Zm7.83-1.66H154q2.91,0,4.08-1.18t1.18-4.08V89.52q0-2.91-1.18-4.08T154,84.25h-1.5a10.4,10.4,0,0,0-5.11,1.07,3.49,3.49,0,0,0-1.89,3.24V95a3.47,3.47,0,0,0,1.93,3.15A10.46,10.46,0,0,0,152.47,99.21Z"/><path d="M177.55,100.87a.73.73,0,0,1-.83-.83V76.66a.73.73,0,0,1,.83-.83h9.54q4.85,0,7,2.19t2.19,7v6.61q0,4.83-2.19,7t-7,2.2Zm.83-1.66h8.7a11,11,0,0,0,4.41-.74,4.61,4.61,0,0,0,2.4-2.4,11,11,0,0,0,.74-4.41V85a11,11,0,0,0-.74-4.41,4.61,4.61,0,0,0-2.4-2.4,11,11,0,0,0-4.41-.74h-8.7Z"/><path d="M204.3,92.37V94q0,2.87,1.18,4t4.08,1.18h3.24a7.65,7.65,0,0,0,3.86-.73A3.11,3.11,0,0,0,218,96a1,1,0,0,1,.25-.62.84.84,0,0,1,.62-.21.81.81,0,0,1,.61.23.78.78,0,0,1,.18.64,4.67,4.67,0,0,1-1.88,3.69,8.74,8.74,0,0,1-5,1.18h-3.24q-3.62,0-5.27-1.65T202.64,94V89.56q0-3.66,1.65-5.31t5.27-1.61h3.24q3.62,0,5.27,1.65t1.65,5.27v2a.73.73,0,0,1-.83.83Zm5.26-8.07q-2.91,0-4.08,1.14t-1.18,4.12V90.7h13.77V89.56q0-2.91-1.18-4.08t-4.08-1.18Z"/><path d="M230.33,100.83a5.47,5.47,0,0,1-3.62-1,4.59,4.59,0,0,1-1.44-3.19.75.75,0,0,1,.83-.87.81.81,0,0,1,.6.21.91.91,0,0,1,.23.62,2.77,2.77,0,0,0,.94,2,4.14,4.14,0,0,0,2.46.58h6.49a3.73,3.73,0,0,0,2.7-.76,5.24,5.24,0,0,0,0-5.37,3.77,3.77,0,0,0-2.7-.75h-6.41a5.07,5.07,0,0,1-3.68-1.17,4.94,4.94,0,0,1-1.19-3.66,5,5,0,0,1,1.19-3.7,5.07,5.07,0,0,1,3.68-1.17h6.21q4.43,0,4.79,4a.73.73,0,0,1-.16.64.83.83,0,0,1-.63.23.81.81,0,0,1-.61-.21,1.11,1.11,0,0,1-.26-.62,2.38,2.38,0,0,0-.83-1.82,4,4,0,0,0-2.29-.51h-6.21a3.54,3.54,0,0,0-2.5.69,3.5,3.5,0,0,0-.7,2.51,3.43,3.43,0,0,0,.7,2.47,3.54,3.54,0,0,0,2.5.69h6.41a5.13,5.13,0,1,1,0,10.21Z"/><path d="M248.27,78.91q-1.18,0-1.18-1.23v-.8a1,1,0,0,1,1.18-1.18h.8a1,1,0,0,1,1.18,1.18v.8q0,1.23-1.18,1.23Zm.41,22a.73.73,0,0,1-.83-.83V83.46a.83.83,0,0,1,1.66,0V100A.73.73,0,0,1,248.69,100.87Z"/><path d="M261.11,108.78a5.39,5.39,0,0,1-3.48-1,4.2,4.2,0,0,1-1.34-3,.83.83,0,0,1,.2-.64.78.78,0,0,1,.59-.23.77.77,0,0,1,.87.83,2.4,2.4,0,0,0,.84,1.87,4.15,4.15,0,0,0,2.32.5h7.36a2.62,2.62,0,0,0,3.2-3.2v-6a5.35,5.35,0,0,1-2.54,2.22,11.1,11.1,0,0,1-4.46.75h-1.5q-3.62,0-5.27-1.65T256.24,94V89.56q0-3.66,1.65-5.29t5.27-1.63h3.24a8.43,8.43,0,0,1,3.36.55,4,4,0,0,1,1.9,1.72V83.46a.83.83,0,0,1,1.66,0v20.46a4.21,4.21,0,0,1-4.87,4.87Zm2.06-9.58h1.5a10.3,10.3,0,0,0,5.12-1.08,3.5,3.5,0,0,0,1.88-3.23V88.73a4.11,4.11,0,0,0-1.28-3.43,6.45,6.45,0,0,0-4-1h-3.24q-2.91,0-4.08,1.16t-1.18,4.1V94q0,2.87,1.18,4T263.17,99.21Z"/><path d="M280.93,100.87a.73.73,0,0,1-.83-.83V83.46a.83.83,0,0,1,1.66,0v2.29q1.8-3.13,7-3.13h1.11q3.62,0,5.27,1.65t1.65,5.27V100a.83.83,0,0,1-1.66,0V89.56q0-2.91-1.18-4.08t-4.08-1.18h-1.11a9.45,9.45,0,0,0-5,1.12,4.28,4.28,0,0,0-2,3.47V100A.73.73,0,0,1,280.93,100.87Z"/><path class="cls-5" d="M69.6,15,50.18,3.07a20.82,20.82,0,0,0-21.05-.42L10.66,13A20.82,20.82,0,0,0,0,31.16V53.94A20.82,20.82,0,0,0,9.94,71.69l19.42,11.9A20.82,20.82,0,0,0,50.41,84L68.88,73.67A20.82,20.82,0,0,0,79.54,55.5V32.73A20.82,20.82,0,0,0,69.6,15ZM53.43,66.65H26.11V20H36.77V56.39H53.43Z"/></g></g></svg>