<svg class="header__logo" xmlns="http://www.w3.org/2000/svg" viewBox="0 0 239.35 93.8"><path fill="#242424" d="M6.63,32.85A84.31,84.31,0,0,0,5.92,20.2c-.21-1-.72-1.43-2-1.43L.2,18.67l.21-1.94c3.67-.1,10-.72,13.36-1.84l.31.21c.3,2.24.61,7.75.61,10.1H15c2.45-5.62,5.92-10.61,12-10.61a5.73,5.73,0,0,1,6,5.81c0,4-2.86,5.2-4.28,5.2S26.22,25.09,26,24c-.51-2.35-1.12-3.77-3.57-3.77-2.86,0-5.41,4.18-6.63,8.77a19.22,19.22,0,0,0-.71,5.81c0,12.65,0,17.24.2,19.89.1,2.15.82,2.66,8.06,3l-.31,2c-3.26,0-8-.3-12.24-.3s-7.44.3-10.81.3l.31-2c4.79-.2,5.61-.71,5.91-2.55.21-2.14.41-6.73.41-13.16Z"></path><path fill="#242424" d="M55.16,60.69c-7.65,0-12.54-2.45-15.81-7-2.55-3.46-4.08-9.18-4.08-15,0-12.65,6.84-24.07,20.81-24.07,14.38,0,16.83,11.73,16.83,17,0,1.94-.51,3.57-1.84,4.08-1.63.61-6.73,1.12-13.77,1.23H44.66c-.21,5.91,1.22,11.32,3.16,14.38A11.2,11.2,0,0,0,58,56.82c6.73,0,10.4-3.37,12.95-10.1l1.94,1C70.06,56.51,63.94,60.69,55.16,60.69Zm.31-43.86c-7.14,0-10.2,8.77-10.61,17.65h8.36a51.85,51.85,0,0,0,9.18-.61c1.43-.31,2-1.43,2-3.68,0-5.4-1.93-13.36-8.87-13.36Z"></path><path fill="#242424" d="M82.35,32.85a82.89,82.89,0,0,0-.71-12.65c-.2-1-.71-1.43-2-1.43l-3.67-.1.2-1.94c3.68-.1,10-.72,13.37-1.84l.3.21c.31,2.24.61,7.75.61,10.1h.31c2.45-5.62,5.92-10.61,12-10.61a5.73,5.73,0,0,1,6,5.81c0,4-2.85,5.2-4.28,5.2s-2.55-.51-2.75-1.63c-.51-2.35-1.13-3.77-3.57-3.77-2.86,0-5.41,4.18-6.63,8.77a18.88,18.88,0,0,0-.72,5.81c0,12.65,0,17.24.2,19.89.11,2.15.82,2.66,8.06,3l-.3,2c-3.27,0-8-.3-12.24-.3s-7.45.3-10.82.3l.31-2c4.79-.2,5.61-.71,5.92-2.55.2-2.14.4-6.73.4-13.16Z"></path><path fill="#242424" d="M133.13,14.59c13.26,0,21,9.48,21,22.54,0,14.38-8.26,23.56-21.72,23.56C118.14,60.69,111,50.9,111,38.05s7.75-23.46,22-23.46Zm-.61,2.34c-4.18,0-6.94,1.94-9,5.31-1.83,3.26-2.85,8.46-2.85,14.38s1,11.73,2.75,15.3c2.14,4.18,5.61,6.43,9.79,6.43s6.94-1.74,8.88-5.72c1.42-3.06,2.45-8.16,2.45-14.58,0-6.22-1-11.84-2.76-15.1-1.83-3.57-4.79-6-9.18-6Z"></path><path fill="#242424" d="M181.81,14.59c13.27,0,21,9.48,21,22.54,0,14.38-8.26,23.56-21.73,23.56-14.28,0-21.42-9.79-21.42-22.64s7.75-23.46,22-23.46Zm-.61,2.34c-4.18,0-6.93,1.94-9,5.31-1.84,3.26-2.86,8.46-2.86,14.38s1,11.73,2.75,15.3c2.15,4.18,5.61,6.43,9.8,6.43s6.93-1.74,8.87-5.72c1.43-3.06,2.45-8.16,2.45-14.58,0-6.22-1-11.84-2.75-15.1-1.84-3.57-4.8-6-9.18-6Z"></path><path fill="#242424" d="M233.92,16l-.41,2.35L220,19c-.1,3.47-.3,8.16-.3,16.22-.1,9.69.1,14.89.51,17.85s2.24,4.29,4.79,4.29c4.69,0,7.24-3.78,8.47-9.08h.92l.91,3.06c-2.34,6.12-7.44,9.28-13.77,9.28-4.48,0-7.44-1.43-8.87-3.47-1.12-1.53-1.63-3.26-1.63-6.32-.11-7.86.3-23.26.3-31.83l-6.83-.61.51-2.35h6.43V4.49A30.66,30.66,0,0,0,219.84,0l.71.2C220.35,3,220,10.81,220,16Z"></path><path fill="#242424" d="M188.16,85.21c-.5,1.15-1.73,2.83-3.24,2.83-1.22,0-1-1.39-.77-2.4.1-.31.24-.84.34-1.17h-.05c-1.06,1.56-2.95,3.57-5,3.57-1.25,0-1.8-1-1.8-2.25,0-2.57,1.68-6.25,4.08-7.76a4.44,4.44,0,0,1,2.5-.84,1.82,1.82,0,0,1,2,1.18l.26-.89h1.34c-.88,2.64-2,6.36-2.52,8.79-.12.57,0,.93.27.93.81,0,1.77-1.25,2.25-2.33Zm-9,.58c0,.67.24,1.44,1,1.44,1.29,0,2.66-1.2,3.89-3.22a14.28,14.28,0,0,0,1.7-4.66c0-1.15-.58-1.6-1.42-1.6a3.28,3.28,0,0,0-2.66,1.48,11.48,11.48,0,0,0-2.52,6.53Z"></path><path fill="#242424" d="M194.54,77.19a2.52,2.52,0,0,1,2,.8,8.11,8.11,0,0,1,1.11-.63,2.44,2.44,0,0,1,.84-.19c.43,0,.77.33.77.5s-.44.65-.68.79a1.91,1.91,0,0,0-1.77-.11,2.92,2.92,0,0,1,.33,1.48c0,2.43-1.58,5-4.24,5a3.25,3.25,0,0,1-1.78-.53c-.62.19-1,.55-1,1s.43.92,1.22,1.16l3.1,1a2.67,2.67,0,0,1,2.23,2.59c0,2.57-2.59,3.72-5.09,3.72-1.94,0-4.68-1-4.68-3.33a2.54,2.54,0,0,1,2.79-2.4,3.52,3.52,0,0,1,.67.07l.14.38c-1.24,0-2.4.51-2.4,1.87s1.73,2.76,4,2.76,3.31-1.17,3.31-2.47A1.9,1.9,0,0,0,194,88.86c-1-.34-2-.75-3-1s-1.9-.91-1.9-2c0-.89.65-1.54,1.7-1.87a2.83,2.83,0,0,1-.6-1.9c0-2.26,1.78-4.9,4.3-4.9Zm0,.48a2.08,2.08,0,0,0-1.7.91,7,7,0,0,0-1.27,3.94c0,1.42.74,1.83,1.41,1.83a2,2,0,0,0,1.54-.77,7,7,0,0,0,1.39-4.08c0-1.25-.5-1.83-1.34-1.83Z"></path><path fill="#242424" d="M206.38,85.21A5.76,5.76,0,0,1,201.55,88c-1.87,0-2.78-1.22-2.78-3.12a8.93,8.93,0,0,1,3-6.6,4.71,4.71,0,0,1,3-1.1,2.08,2.08,0,0,1,2.33,2.28c0,1-.91,1.65-1.7,2A17.56,17.56,0,0,1,200.49,83a9.16,9.16,0,0,0-.21,1.83c0,1.44.53,2.52,1.92,2.52,1.8,0,3.12-1.18,3.89-3.07h.24Zm-1.93-7.46c-1.12,0-2.83,1-3.84,4.58a15.09,15.09,0,0,0,3.7-.94,2.24,2.24,0,0,0,1.44-2.08c0-1-.48-1.56-1.25-1.56Z"></path><path fill="#242424" d="M218.28,85.28c-.82,1.63-2.16,2.76-3.36,2.76s-1.15-1.2-.65-2.61c.67-1.85,1.49-4,2.11-5.84.27-.74.24-1.6-.64-1.6-2.43,0-4.8,3.91-5.72,6.45-.31.94-.64,1.73-1.1,3.31-.48,0-1,.12-1.44.2a82.94,82.94,0,0,0,2.83-9.39c.05-.29,0-.38-.24-.38l-1.39,0,.14-.43a16.93,16.93,0,0,0,3.24-.58c-.45,1.49-.88,3-1.29,4.4,1.29-2,3.24-4.4,5.61-4.4a1.64,1.64,0,0,1,1.11.34c.62.55.36,1.85,0,2.69-.63,1.82-1.56,4.22-2.14,6.09-.19.58-.07.87.22.87.74,0,1.8-1.18,2.32-2.26Z"></path><path fill="#242424" d="M227.3,85.19A5.45,5.45,0,0,1,222.69,88c-2,0-3-1.15-3-3.21a8.48,8.48,0,0,1,3-6.41,4.93,4.93,0,0,1,3-1.2c1.85,0,2.43,1,2.43,1.94s-.53,1.32-1,1.32c-.27,0-.51-.12-.55-.33a.58.58,0,0,1,0-.53,2,2,0,0,0,.24-.79c0-.65-.34-1.11-1.34-1.11-1.16,0-2.26.82-3.22,2.64a9.43,9.43,0,0,0-1.18,4.51c0,1.54.77,2.48,2,2.48,1.76,0,3.08-1.28,3.87-3.12h.21Z"></path><path fill="#242424" d="M232,77.15c0,1.8.24,6.74.36,9.07.91-1.78,1.92-3.72,3-5.69,1.29-2.23,2.47-3.38,3.88-3.41l0,.38c-.91.22-2,1.45-3.07,3.15a81.22,81.22,0,0,0-4.58,8.11c-1.9,3.67-3,4.87-4.52,4.87a1.42,1.42,0,0,1-1.53-1.41.87.87,0,0,1,.79-.94.59.59,0,0,1,.58.48c.12.58.38.84.79.84,1,0,2-1.27,3.45-4.37a3.88,3.88,0,0,1-.19-1.12c0-3-.36-7.2-.5-8.5-.07-.38-.19-.46-1.85-.41l.14-.45A11.22,11.22,0,0,0,232,77.15Z"></path><rect fill="#242424" x="1.12" y="81.17" width="169.52" height="1"></rect></svg>